<?xml version="1.0"?>
<svg version="1.1" xmlns="http://www.w3.org/2000/svg" width="800px" height="400px" style=""><path fill="#ffffff" d="M52.05517578125,228.0986328125q0-1.17919921875,0.80859375-1.499267578125t1.751953125-0.320068359375q1.65087890625,0,2.79638671875,1.482421875t2.173095703125,3.251220703125t2.038330078125,3.251220703125t2.39208984375,1.482421875q1.04443359375,0,1.903564453125-0.522216796875t1.482421875-1.31396484375t0.960205078125-1.78564453125t0.3369140625-1.970947265625q0-2.560546875-1.027587890625-5.28955078125t-2.6279296875-5.62646484375t-3.385986328125-5.9296875t-3.369140625-6.16552734375t-2.6279296875-6.384521484375t-1.04443359375-6.552978515625q0-4.95263671875,2.96484375-7.681640625t7.81640625-2.72900390625q1.65087890625,0,3.33544921875,0.4716796875t3.099609375,1.4150390625t2.307861328125,2.32470703125t0.892822265625,3.234375q0,0.6064453125-0.892822265625,0.791748046875t-1.297119140625,0.185302734375q-0.6064453125,0-1.31396484375-0.151611328125t-0.90966796875-0.825439453125t-0.57275390625-1.5498046875t-0.926513671875-1.634033203125t-1.31396484375-1.31396484375t-1.667724609375-0.555908203125q-1.51611328125,0-2.577392578125,0.623291015625t-1.71826171875,1.667724609375t-0.97705078125,2.341552734375t-0.320068359375,2.678466796875q0,3.234375,1.11181640625,6.519287109375t2.7626953125,6.5361328125t3.588134765625,6.418212890625t3.588134765625,6.16552734375t2.7626953125,5.8623046875t1.11181640625,5.42431640625q0,2.291015625-1.078125,3.87451171875t-2.72900390625,2.577392578125t-3.655517578125,1.44873046875t-3.925048828125,0.454833984375q-2.05517578125,0-4.21142578125-0.825439453125t-3.87451171875-2.274169921875t-2.830078125-3.385986328125t-1.11181640625-4.194580078125z M82.366323242188,221.25927734375q0-2.42578125,0.623291015625-4.868408203125t1.937255859375-4.3798828125t3.352294921875-3.150146484375t4.801025390625-1.212890625q1.17919921875,0,2.59423828125,0.286376953125t2.611083984375,0.90966796875t2.021484375,1.6171875t0.825439453125,2.442626953125q0,0.90966796875-0.4716796875,1.212890625t-1.24658203125,0.30322265625l-0.23583984375-0.3369140625t-0.656982421875-0.859130859375t-0.892822265625-1.11181640625t-0.90966796875-0.993896484375q-1.38134765625-1.38134765625-2.59423828125-1.482421875l-0.26953125,0q-1.0107421875,0-1.88671875,0.6064453125q-0.97705078125,0.7412109375-1.735107421875,2.0888671875t-1.263427734375,2.86376953125t-0.791748046875,3.06591796875t-0.286376953125,2.560546875q0,1.38134765625,0.320068359375,3.150146484375t1.078125,3.352294921875t1.92041015625,2.66162109375t2.981689453125,1.078125q1.65087890625,0,2.99853515625-0.80859375t2.577392578125-1.802490234375t2.408935546875-1.78564453125t2.42578125-0.791748046875q0.5390625,0,1.094970703125,0.134765625t0.555908203125,0.70751953125l0,0.2021484375q-0.6064453125,1.58349609375-2.05517578125,2.79638671875t-3.251220703125,2.105712890625t-3.73974609375,1.330810546875t-3.453369140625,0.43798828125q-2.830078125,0-4.969482421875-0.926513671875t-3.554443359375-2.543701171875t-2.139404296875-3.891357421875t-0.724365234375-4.969482421875z M111.76780273438,225.60546875l0-3.1669921875q0-1.71826171875,0.084228515625-4.868408203125t0.218994140625-6.90673828125t0.37060546875-7.833251953125t0.5390625-7.698486328125t0.724365234375-6.485595703125t0.960205078125-4.2451171875q0.3369140625-0.77490234375,1.11181640625-0.97705078125t1.51611328125-0.2021484375q1.17919921875,0,2.072021484375,0.522216796875t0.892822265625,1.903564453125l-0.6064453125,0.673828125q-1.17919921875,7.78271484375-1.51611328125,15.6328125t-0.4716796875,15.7001953125q0.84228515625-1.31396484375,1.903564453125-2.577392578125t2.3583984375-2.240478515625t2.79638671875-1.566650390625t3.284912109375-0.589599609375q2.291015625,0,3.790283203125,1.38134765625t2.476318359375,3.588134765625t1.44873046875,4.935791015625t0.724365234375,5.4580078125t0.353759765625,5.171630859375t0.30322265625,4.059814453125q-0.64013671875,0.8759765625-1.88671875,0.8759765625l-0.10107421875,0q-0.5390625,0-1.17919921875-0.134765625t-0.84228515625-0.673828125l0.0673828125,0.0673828125q-0.4716796875-1.04443359375-0.64013671875-3.015380859375t-0.26953125-4.34619140625t-0.353759765625-4.868408203125t-0.758056640625-4.5146484375t-1.482421875-3.33544921875t-2.6279296875-1.38134765625l-0.2021484375,0q-1.98779296875,0-3.33544921875,1.212890625q-1.4150390625,1.2802734375-2.291015625,3.369140625t-1.34765625,4.6494140625t-0.724365234375,4.935791015625t-0.387451171875,4.3125t-0.3369140625,2.846923828125q-0.2021484375,0.77490234375-1.196044921875,1.027587890625t-1.701416015625,0.252685546875q-1.65087890625,0-2.6953125-0.943359375q-0.77490234375-1.85302734375-0.90966796875-4.61572265625t-0.134765625-5.390625z M143.32553222656,222.5732421875q0-1.92041015625,0.488525390625-3.958740234375t1.5498046875-3.67236328125t2.678466796875-2.66162109375t3.908203125-1.027587890625q1.71826171875,0,3.621826171875,0.589599609375t3.487060546875,1.6845703125t2.577392578125,2.678466796875t0.993896484375,3.53759765625q0,2.3583984375-0.859130859375,4.48095703125t-2.408935546875,3.790283203125t-3.621826171875,2.6279296875t-4.497802734375,0.960205078125q-1.98779296875,0-3.47021484375-0.724365234375t-2.476318359375-1.937255859375t-1.482421875-2.86376953125t-0.488525390625-3.50390625z M148.27816894531,222.505859375q0,0.6064453125,0.185302734375,1.78564453125t0.555908203125,2.307861328125t0.960205078125,1.9541015625t1.431884765625,0.758056640625q1.78564453125-0.2021484375,2.947998046875-1.162353515625t1.88671875-2.341552734375t1.0107421875-2.99853515625t0.286376953125-3.06591796875q0-1.85302734375-0.724365234375-3.099609375t-2.375244140625-2.021484375q0,0.0673828125,0.0673828125,0.0673828125t0.0673828125-0.0673828125l-0.84228515625-0.2021484375q-0.3369140625-0.134765625-0.825439453125-0.30322265625t-0.960205078125-0.7412109375q-1.31396484375,0.4716796875-2.038330078125,1.212890625t-1.094970703125,1.802490234375t-0.454833984375,2.543701171875t-0.084228515625,3.5712890625z M168.8525,233.8935546875q0-0.97705078125,0.084228515625-2.05517578125t0.151611328125-2.021484375l0.2021484375-5.0537109375q0.3369140625-6.064453125,0.825439453125-11.9267578125t0.825439453125-11.859375q0.2021484375-3.3017578125,0.30322265625-6.485595703125t0.30322265625-6.485595703125q-0.134765625-0.26953125-0.134765625-0.37060546875q0-0.4716796875,0.353759765625-0.7412109375t0.825439453125-0.454833984375t0.993896484375-0.252685546875t0.791748046875-0.0673828125l0.77490234375,0q1.04443359375,0.134765625,1.51611328125,0.656982421875t0.6064453125,1.24658203125t0.0673828125,1.5498046875t-0.0673828125,1.532958984375q0,4.88525390625-0.23583984375,9.955810546875t-0.5390625,10.1748046875t-0.555908203125,10.20849609375t-0.252685546875,10.090576171875l0,2.3583984375q0,1.58349609375-0.892822265625,2.0888671875t-2.476318359375,0.50537109375q-1.38134765625,0-2.42578125-0.6064453125t-1.04443359375-1.98779296875z M184.30573730469,221.93310546875q0-2.291015625,0.623291015625-4.41357421875t1.869873046875-3.790283203125t3.116455078125-2.66162109375t4.329345703125-0.993896484375q1.51611328125,0,3.352294921875,0.454833984375t3.453369140625,1.34765625t2.6953125,2.274169921875t1.078125,3.1669921875q0,0.84228515625-0.286376953125,1.2802734375t-1.162353515625,0.43798828125l-0.37060546875-0.0673828125q0.97705078125,2.6279296875,1.6845703125,5.390625t1.38134765625,5.525390625q0.26953125,0.5390625,0.404296875,0.960205078125t0.134765625,0.825439453125q0,0.5390625-0.30322265625,0.892822265625t-0.791748046875,0.522216796875t-1.0107421875,0.23583984375t-0.926513671875,0.0673828125q-1.44873046875,0-2.173095703125-0.50537109375t-1.04443359375-1.38134765625t-0.387451171875-1.970947265625t-0.26953125-2.206787109375q-0.404296875,1.31396484375-1.061279296875,2.560546875t-1.5498046875,2.240478515625t-2.105712890625,1.58349609375t-2.72900390625,0.589599609375q-2.2236328125,0-3.73974609375-1.2802734375t-2.442626953125-3.150146484375t-1.34765625-3.992431640625t-0.421142578125-3.94189453125z M189.08991699219,221.46142578125q0,1.24658203125,0.16845703125,2.6279296875t0.555908203125,2.72900390625t0.993896484375,2.543701171875t1.51611328125,2.105712890625q1.65087890625-1.78564453125,2.442626953125-4.34619140625t1.4150390625-4.935791015625t1.4150390625-4.07666015625t2.442626953125-1.701416015625q1.04443359375,0,1.751953125,0.37060546875q-0.3369140625-0.84228515625-1.11181640625-1.634033203125t-1.735107421875-1.44873046875t-1.98779296875-1.078125t-1.937255859375-0.421142578125q-0.26953125,0-0.623291015625,0.084228515625t-0.555908203125,0.016845703125q-1.38134765625,0.404296875-2.274169921875,1.398193359375t-1.44873046875,2.341552734375t-0.791748046875,2.7626953125t-0.23583984375,2.66162109375z M213.50506835938,212.49951171875q0-1.38134765625,0.488525390625-2.32470703125t2.072021484375-0.943359375q0.6064453125,0,1.51611328125,0.185302734375t1.04443359375,0.926513671875q0.3369140625,1.98779296875,0.37060546875,4.3125t0.23583984375,4.3798828125q0.77490234375-1.51611328125,1.98779296875-3.26806640625t2.7626953125-3.234375t3.369140625-2.45947265625t3.7060546875-0.97705078125q0.134765625,0,0.50537109375,0.10107421875t0.690673828125,0.286376953125t0.387451171875,0.421142578125t-0.37060546875,0.43798828125q-0.134765625,0.404296875-0.57275390625,0.488525390625t-0.77490234375,0.084228515625q-0.2021484375,0-0.64013671875-0.16845703125q-2.4931640625,1.31396484375-4.2451171875,3.5712890625t-2.86376953125,5.003173828125t-1.6171875,5.794921875t-0.50537109375,5.946533203125q0,1.44873046875-0.656982421875,1.751953125t-2.105712890625,0.30322265625q-0.77490234375,0-1.634033203125-0.16845703125t-1.196044921875-1.078125q-0.6064453125-1.92041015625-0.993896484375-4.41357421875t-0.589599609375-5.137939453125t-0.286376953125-5.205322265625t-0.084228515625-4.61572265625z"/><path fill="#00f6ff" d="M131.05517578125,228.0986328125q0-1.17919921875,0.80859375-1.499267578125t1.751953125-0.320068359375q1.65087890625,0,2.79638671875,1.482421875t2.173095703125,3.251220703125t2.038330078125,3.251220703125t2.39208984375,1.482421875q1.04443359375,0,1.903564453125-0.522216796875t1.482421875-1.31396484375t0.960205078125-1.78564453125t0.3369140625-1.970947265625q0-2.560546875-1.027587890625-5.28955078125t-2.6279296875-5.62646484375t-3.385986328125-5.9296875t-3.369140625-6.16552734375t-2.6279296875-6.384521484375t-1.04443359375-6.552978515625q0-4.95263671875,2.96484375-7.681640625t7.81640625-2.72900390625q1.65087890625,0,3.33544921875,0.4716796875t3.099609375,1.4150390625t2.307861328125,2.32470703125t0.892822265625,3.234375q0,0.6064453125-0.892822265625,0.791748046875t-1.297119140625,0.185302734375q-0.6064453125,0-1.31396484375-0.151611328125t-0.90966796875-0.825439453125t-0.57275390625-1.5498046875t-0.926513671875-1.634033203125t-1.31396484375-1.31396484375t-1.667724609375-0.555908203125q-1.51611328125,0-2.577392578125,0.623291015625t-1.71826171875,1.667724609375t-0.97705078125,2.341552734375t-0.320068359375,2.678466796875q0,3.234375,1.11181640625,6.519287109375t2.7626953125,6.5361328125t3.588134765625,6.418212890625t3.588134765625,6.16552734375t2.7626953125,5.8623046875t1.11181640625,5.42431640625q0,2.291015625-1.078125,3.87451171875t-2.72900390625,2.577392578125t-3.655517578125,1.44873046875t-3.925048828125,0.454833984375q-2.05517578125,0-4.21142578125-0.825439453125t-3.87451171875-2.274169921875t-2.830078125-3.385986328125t-1.11181640625-4.194580078125z M161.36632324219,225.60546875l0-3.1669921875q0-1.71826171875,0.084228515625-4.868408203125t0.218994140625-6.90673828125t0.37060546875-7.833251953125t0.5390625-7.698486328125t0.724365234375-6.485595703125t0.960205078125-4.2451171875q0.3369140625-0.77490234375,1.11181640625-0.97705078125t1.51611328125-0.2021484375q1.17919921875,0,2.072021484375,0.522216796875t0.892822265625,1.903564453125l-0.6064453125,0.673828125q-1.17919921875,7.78271484375-1.51611328125,15.6328125t-0.4716796875,15.7001953125q0.84228515625-1.31396484375,1.903564453125-2.577392578125t2.3583984375-2.240478515625t2.79638671875-1.566650390625t3.284912109375-0.589599609375q2.291015625,0,3.790283203125,1.38134765625t2.476318359375,3.588134765625t1.44873046875,4.935791015625t0.724365234375,5.4580078125t0.353759765625,5.171630859375t0.30322265625,4.059814453125q-0.64013671875,0.8759765625-1.88671875,0.8759765625l-0.10107421875,0q-0.5390625,0-1.17919921875-0.134765625t-0.84228515625-0.673828125l0.0673828125,0.0673828125q-0.4716796875-1.04443359375-0.64013671875-3.015380859375t-0.26953125-4.34619140625t-0.353759765625-4.868408203125t-0.758056640625-4.5146484375t-1.482421875-3.33544921875t-2.6279296875-1.38134765625l-0.2021484375,0q-1.98779296875,0-3.33544921875,1.212890625q-1.4150390625,1.2802734375-2.291015625,3.369140625t-1.34765625,4.6494140625t-0.724365234375,4.935791015625t-0.387451171875,4.3125t-0.3369140625,2.846923828125q-0.2021484375,0.77490234375-1.196044921875,1.027587890625t-1.701416015625,0.252685546875q-1.65087890625,0-2.6953125-0.943359375q-0.77490234375-1.85302734375-0.90966796875-4.61572265625t-0.134765625-5.390625z M193.59788085937,221.93310546875q0-2.291015625,0.623291015625-4.41357421875t1.869873046875-3.790283203125t3.116455078125-2.66162109375t4.329345703125-0.993896484375q1.51611328125,0,3.352294921875,0.454833984375t3.453369140625,1.34765625t2.6953125,2.274169921875t1.078125,3.1669921875q0,0.84228515625-0.286376953125,1.2802734375t-1.162353515625,0.43798828125l-0.37060546875-0.0673828125q0.97705078125,2.6279296875,1.6845703125,5.390625t1.38134765625,5.525390625q0.26953125,0.5390625,0.404296875,0.960205078125t0.134765625,0.825439453125q0,0.5390625-0.30322265625,0.892822265625t-0.791748046875,0.522216796875t-1.0107421875,0.23583984375t-0.926513671875,0.0673828125q-1.44873046875,0-2.173095703125-0.50537109375t-1.04443359375-1.38134765625t-0.387451171875-1.970947265625t-0.26953125-2.206787109375q-0.404296875,1.31396484375-1.061279296875,2.560546875t-1.5498046875,2.240478515625t-2.105712890625,1.58349609375t-2.72900390625,0.589599609375q-2.2236328125,0-3.73974609375-1.2802734375t-2.442626953125-3.150146484375t-1.34765625-3.992431640625t-0.421142578125-3.94189453125z M198.38206054687,221.46142578125q0,1.24658203125,0.16845703125,2.6279296875t0.555908203125,2.72900390625t0.993896484375,2.543701171875t1.51611328125,2.105712890625q1.65087890625-1.78564453125,2.442626953125-4.34619140625t1.4150390625-4.935791015625t1.4150390625-4.07666015625t2.442626953125-1.701416015625q1.04443359375,0,1.751953125,0.37060546875q-0.3369140625-0.84228515625-1.11181640625-1.634033203125t-1.735107421875-1.44873046875t-1.98779296875-1.078125t-1.937255859375-0.421142578125q-0.26953125,0-0.623291015625,0.084228515625t-0.555908203125,0.016845703125q-1.38134765625,0.404296875-2.274169921875,1.398193359375t-1.44873046875,2.341552734375t-0.791748046875,2.7626953125t-0.23583984375,2.66162109375z M222.79721191406,212.49951171875q0-1.38134765625,0.488525390625-2.32470703125t2.072021484375-0.943359375q0.6064453125,0,1.51611328125,0.185302734375t1.04443359375,0.926513671875q0.3369140625,1.98779296875,0.37060546875,4.3125t0.23583984375,4.3798828125q0.77490234375-1.51611328125,1.98779296875-3.26806640625t2.7626953125-3.234375t3.369140625-2.45947265625t3.7060546875-0.97705078125q0.134765625,0,0.50537109375,0.10107421875t0.690673828125,0.286376953125t0.387451171875,0.421142578125t-0.37060546875,0.43798828125q-0.134765625,0.404296875-0.57275390625,0.488525390625t-0.77490234375,0.084228515625q-0.2021484375,0-0.64013671875-0.16845703125q-2.4931640625,1.31396484375-4.2451171875,3.5712890625t-2.86376953125,5.003173828125t-1.6171875,5.794921875t-0.50537109375,5.946533203125q0,1.44873046875-0.656982421875,1.751953125t-2.105712890625,0.30322265625q-0.77490234375,0-1.634033203125-0.16845703125t-1.196044921875-1.078125q-0.6064453125-1.92041015625-0.993896484375-4.41357421875t-0.589599609375-5.137939453125t-0.286376953125-5.205322265625t-0.084228515625-4.61572265625z M246.74068359375,223.314453125q0-2.3583984375,0.522216796875-5.55908203125t1.768798828125-6.064453125t3.284912109375-4.868408203125t5.137939453125-2.004638671875q2.8974609375,0,4.34619140625,1.667724609375t1.44873046875,4.497802734375q0,1.85302734375-0.690673828125,4.059814453125t-1.970947265625,4.177734375t-3.0322265625,3.284912109375t-3.908203125,1.31396484375l-0.8759765625-0.0673828125q0,0.90966796875,0.26953125,2.442626953125t0.791748046875,3.049072265625t1.34765625,2.66162109375t2.004638671875,1.1455078125q1.71826171875,0,3.3017578125-1.38134765625t2.99853515625-3.06591796875t2.6279296875-3.06591796875t2.2236328125-1.38134765625q0.5390625,0,1.11181640625,0.16845703125t0.64013671875,0.943359375q0,0.4716796875-0.252685546875,0.77490234375t-0.454833984375,0.673828125q-1.04443359375,1.78564453125-2.274169921875,3.40283203125t-2.779541015625,2.93115234375t-3.385986328125,2.072021484375t-4.059814453125,0.758056640625q-2.8974609375,0-4.81787109375-1.027587890625t-3.099609375-2.7626953125t-1.701416015625-4.00927734375t-0.522216796875-4.767333984375z M252.7714453125,220.75390625l0.943359375,0.84228515625q0.673828125,0.6064453125,1.34765625,0.26953125t1.212890625-1.229736328125t0.993896484375-2.206787109375t0.80859375-2.6953125t0.522216796875-2.6953125t0.16845703125-2.18994140625l0-1.1455078125t-0.10107421875-1.212890625t-0.353759765625-0.960205078125t-0.791748046875-0.488525390625q-0.16845703125-0.03369140625-0.30322265625-0.03369140625q-1.1455078125,0-1.9541015625,1.44873046875q-0.8759765625,1.6171875-1.4150390625,3.925048828125t-0.77490234375,4.733642578125t-0.30322265625,3.638671875z"/></svg>
